<?xml version="1.0" encoding="UTF-8"?>
<!-- Generator: Adobe Illustrator 16.0.4, SVG Export Plug-In . SVG Version: 6.00 Build 0)  -->
<!DOCTYPE svg PUBLIC "-//W3C//DTD SVG 1.1//EN" "http://www.w3.org/Graphics/SVG/1.1/DTD/svg11.dtd">
<svg version="1.1" id="Layer_1" xmlns="http://www.w3.org/2000/svg" xmlns:xlink="http://www.w3.org/1999/xlink" x="0px" y="0px" width="152px" height="48px" viewBox="0 0 152 48" enable-background="new 0 0 152 48" xml:space="preserve">
<g>
	<path fill="#FFFFFF" d="M81.914,28.801c0,0.603-0.09,1.269-0.391,1.681c-0.3,0.412-0.839,0.729-1.529,0.729   c-1.77,0-2.37-1.617-2.37-3.647c0-3.108,1.23-5.296,3.48-5.296c0.359,0,0.629,0.031,0.81,0.062V28.801z M88.874,31.116   c-0.24,0.19-0.811,0.412-1.23,0.412c-0.45,0-0.689-0.286-0.689-0.856V13.038h-6.81v3.711h1.77v2.378   c-0.391-0.031-0.78-0.063-1.2-0.063c-4.499,0-8.188,3.077-8.188,8.785c0,4.6,2.34,7.169,5.85,7.169c1.739,0,3.27-0.793,4.079-1.84   c0.48,1.205,1.709,1.808,2.969,1.808c1.199,0,2.399-0.412,3.27-1.015L88.874,31.116z M71.48,19.159   c-0.36-0.096-0.63-0.096-1.05-0.096c-1.68,0-3.12,0.983-3.81,2.475l-0.9-2.189h-4.739v3.711h1.77v11.672h5.04v-8.659   c0-2.029,0.689-2.917,2.369-2.917c0.42,0,0.9,0.031,1.32,0.095V19.159z M55.373,27.057c0,2.854-0.51,4.408-2.37,4.408   s-2.37-1.554-2.37-4.408s0.51-4.44,2.37-4.44S55.373,24.202,55.373,27.057 M60.472,27.057c0-4.789-2.67-7.993-7.469-7.993   c-4.799,0-7.469,3.204-7.469,7.993s2.67,7.961,7.469,7.961C57.772,35.018,60.472,31.846,60.472,27.057 M45.114,13.322   c-0.93-0.349-2.58-0.665-3.81-0.665c-1.89,0-3.479,0.539-4.35,1.554c-0.9,1.047-1.109,2.315-1.109,4.155v0.982h-2.34v3.711h2.34   v11.672h5.039V23.06h3.48v-3.711h-3.48v-1.395c0-1.143,0.48-1.713,1.53-1.713c0.81,0,2.01,0.254,2.7,0.508V13.322z M33.206,31.053   c-0.27,0.189-0.9,0.444-1.38,0.444c-0.63,0-1.02-0.317-1.44-0.952l-2.069-3.234l4.229-7.962h-4.41l-2.069,4.441l-2.849-4.441h-5.19   l4.62,7.2l-4.29,8.183h4.44l2.189-4.535l1.291,1.998c1.379,2.156,2.489,2.791,4.02,2.791c1.109,0,2.189-0.444,2.759-0.92   L33.206,31.053z M12.119,24.709c0,4.346-1.17,6.153-3.27,6.153s-3.27-1.808-3.27-6.153c0-4.345,1.17-6.185,3.27-6.185   S12.119,20.364,12.119,24.709 M17.698,24.709c0-6.152-3.12-10.435-8.849-10.435C3.12,14.274,0,18.557,0,24.709   c0,6.153,3.12,10.403,8.849,10.403C14.578,35.112,17.698,30.862,17.698,24.709"/>
	<path fill="#CFD725" d="M131.132,34.465l5.824-19.688h-4.938l-2.542,10.731c-0.147,0.621-0.354,1.865-0.384,2.644h-0.059   c0-0.747-0.207-1.991-0.354-2.582l-2.927-10.793h-4.848l1.39,4.945l-1.892,5.941c-0.147,0.466-0.384,1.772-0.413,2.488h-0.06   c0-0.685-0.296-2.022-0.474-2.551l-3.28-10.824h-5.173l6.237,19.688h4.492l2.512-8.024l2.305,8.024H131.132z M152,30.64h-7.861   V14.776h-5.172v19.688h12.797L152,30.64z"/>
	<path fill="#CFD725" d="M109.557,23.6c0,0-2.494,2.512-3.725,1.03c-0.003,2.301-0.35,4.392-2.265,5.177l0.807,2.138l1.359-0.033   l-1.289,0.25l1.17,0.243l-1.311,0.03l0.347,0.674l-0.729-0.756l-0.895,0.062l0.707-0.249l-0.979-2.076l-0.252,0.062   c-1.246,0.287-2.234,0.347-3.02,0.244l-0.307-0.051c-0.811-0.161-1.375-0.514-1.775-0.958l-1.629,1.236l0.312,0.806l-0.463-0.682   l-1.914-0.672l1.321,0.3l-0.799-0.933l0.969,0.743l-0.37-1.225l0.652,0.971l1.488-1.24c-0.729-1.203-0.521-2.556-0.612-3.239   c-0.004-0.032-0.008-0.082-0.011-0.122C95.695,25.993,94,25.745,94,25.745l0.853-1.23c0.621-0.899,1.196-0.724,1.463-0.562   c0.016-2.466,0.223-6.804,0.223-6.804l1.321,1.362l5.366-0.292l0.979-1.612l0.477,1.161c0,0,0.812,2.494,1.072,5.249   c0.302-0.289,0.844-0.483,1.819-0.133L109.557,23.6z M111.481,24.694c0-5.882-4.768-10.649-10.649-10.649   c-5.881,0-10.648,4.768-10.648,10.649c0,5.881,4.768,10.648,10.648,10.648C106.713,35.343,111.481,30.575,111.481,24.694"/>
</g>
<g>
</g>
<g>
</g>
<g>
</g>
<g>
</g>
<g>
</g>
<g>
</g>
<g>
</g>
<g>
</g>
<g>
</g>
<g>
</g>
<g>
</g>
<g>
</g>
<g>
</g>
<g>
</g>
<g>
</g>
</svg>